<?xml version="1.0" standalone="no"?>
<!DOCTYPE svg PUBLIC "-//W3C//DTD SVG 20010904//EN"
 "http://www.w3.org/TR/2001/REC-SVG-20010904/DTD/svg10.dtd">
<svg version="1.0" xmlns="http://www.w3.org/2000/svg"
 width="1960.000000pt" height="563.000000pt" viewBox="0 0 1960.000000 563.000000"
 preserveAspectRatio="xMidYMid meet">

<g transform="translate(0.000000,563.000000) scale(0.100000,-0.100000)"
fill="#000000" stroke="none">
<path d="M2266 5059 c-376 -39 -682 -263 -829 -609 -20 -47 -41 -109 -47 -138
l-12 -52 -181 0 c-119 0 -205 -5 -250 -15 -142 -30 -271 -128 -328 -249 -29
-62 -42 -144 -265 -1702 -129 -901 -234 -1658 -234 -1683 1 -129 65 -292 148
-377 57 -58 146 -107 221 -123 40 -9 324 -9 1095 -2 573 6 1390 13 1816 17
835 7 832 7 933 61 56 31 148 126 178 186 81 159 85 243 25 682 -25 187 -77
572 -115 855 -39 283 -97 715 -131 960 -33 245 -80 592 -104 772 -49 364 -59
398 -137 483 -53 57 -109 97 -180 127 -50 21 -74 23 -303 28 l-250 5 -14 55
c-18 72 -89 221 -143 301 -55 82 -171 196 -260 254 -127 85 -302 148 -447 160
-37 4 -76 7 -87 9 -11 2 -56 -1 -99 -5z m281 -364 c102 -32 212 -104 287 -187
54 -60 144 -214 131 -226 -10 -10 -1219 -20 -1230 -10 -17 15 70 170 135 241
176 191 432 260 677 182z m-948 -664 c43 -40 44 -100 2 -142 -65 -64 -171 -20
-171 71 0 91 102 134 169 71z m1640 -2 c65 -65 23 -169 -69 -169 -33 0 -48 6
-71 29 -64 64 -20 171 69 171 32 0 47 -7 71 -31z m-969 -746 c0 -5 11 -79 23
-166 16 -109 20 -161 12 -166 -5 -5 -32 -11 -60 -12 l-49 -4 -23 160 c-12 88
-21 165 -18 172 5 15 115 30 115 16z m269 -2 c11 -7 12 -25 3 -102 -7 -52 -15
-127 -18 -168 l-7 -74 -54 6 c-31 3 -58 8 -61 11 -5 6 12 213 24 299 6 37 6
37 52 37 26 0 53 -4 61 -9z m233 -58 c24 -9 45 -18 47 -19 2 -2 -22 -76 -54
-164 -53 -148 -59 -160 -79 -154 -47 14 -86 34 -86 43 0 5 23 72 50 148 28 76
52 144 55 151 6 16 16 15 67 -5z m-713 -158 c33 -82 57 -152 53 -156 -17 -15
-96 -39 -103 -32 -9 9 -130 305 -127 309 11 10 104 41 109 36 4 -4 34 -74 68
-157z m993 7 c15 -13 9 -24 -69 -140 -114 -170 -102 -160 -154 -122 -24 18
-43 36 -41 41 1 6 43 71 93 145 l90 135 32 -22 c18 -12 40 -29 49 -37z m-1215
-106 c51 -70 93 -131 93 -136 0 -11 -74 -70 -88 -70 -5 0 -12 6 -15 13 -3 6
-46 68 -97 136 -50 68 -90 125 -88 127 20 19 85 62 92 60 6 -1 52 -60 103
-130z m1403 -58 l35 -41 -85 -79 c-47 -44 -105 -96 -129 -116 l-43 -36 -34 39
c-19 22 -33 45 -33 50 1 13 231 224 244 224 6 -1 26 -19 45 -41z m-1461 -208
c1 -3 -16 -24 -37 -48 l-37 -42 -127 106 c-71 58 -128 109 -128 113 0 4 16 26
36 49 l35 42 129 -108 c71 -59 129 -109 129 -112z m540 111 c20 -38 42 -51 89
-51 30 0 28 -21 -6 -54 -26 -24 -29 -32 -24 -77 l5 -51 -43 22 c-40 20 -44 21
-81 6 -55 -22 -57 -21 -51 30 4 41 2 48 -27 78 -36 37 -34 41 25 51 36 5 44
12 59 46 10 21 22 39 26 39 5 0 17 -17 28 -39z m529 -161 c15 0 34 -5 42 -10
12 -8 10 -15 -17 -42 -29 -30 -31 -37 -26 -81 l6 -48 -27 11 c-15 5 -36 15
-47 20 -14 8 -28 6 -58 -10 -22 -11 -42 -20 -45 -20 -2 0 -2 24 1 53 5 51 4
54 -28 81 -26 22 -30 29 -18 37 8 5 25 9 39 9 32 0 41 7 69 53 l24 39 28 -46
c23 -36 35 -46 57 -46z m546 36 c14 -25 26 -49 26 -54 0 -8 -258 -153 -286
-160 -14 -4 -69 86 -59 96 8 8 278 160 287 161 3 1 18 -19 32 -43z m-1884 -71
c83 -41 150 -77 150 -80 0 -17 -47 -95 -57 -95 -21 0 -293 139 -293 150 0 10
42 100 47 100 2 0 71 -34 153 -75z m1991 -200 c7 -30 10 -57 8 -59 -2 -2 -75
-22 -162 -44 -148 -38 -158 -39 -167 -22 -14 26 -24 100 -14 100 5 1 74 18
154 40 80 21 150 39 157 39 6 1 17 -24 24 -54z m-2074 -26 c82 -17 149 -32
151 -34 5 -5 -9 -90 -17 -103 -5 -8 -51 -2 -166 22 l-160 33 2 43 c3 55 9 70
28 70 8 0 81 -14 162 -31z m1588 -136 c17 -32 27 -39 65 -46 25 -5 47 -11 49
-12 2 -2 -11 -19 -29 -37 -28 -30 -31 -38 -27 -80 2 -27 3 -48 1 -48 -1 0 -22
8 -46 19 -43 18 -45 18 -79 0 -18 -10 -38 -18 -43 -19 -5 0 -6 22 -3 49 5 44
3 51 -24 77 -16 15 -29 31 -29 34 0 4 19 11 42 16 34 7 48 17 67 47 13 20 27
37 30 37 3 0 15 -17 26 -37z m-647 -43 c37 -64 38 -65 97 -77 121 -26 116 -17
50 -83 l-59 -59 10 -81 c5 -45 7 -83 3 -85 -3 -3 -38 11 -78 30 l-72 35 -71
-36 c-38 -19 -73 -33 -76 -30 -3 3 -1 41 5 83 l9 78 -54 57 c-30 31 -51 61
-48 66 3 5 39 15 79 22 l74 12 38 70 c20 38 41 68 46 66 5 -2 26 -32 47 -68z
m1167 -80 l0 -55 -172 -3 -173 -2 0 53 c0 30 3 57 7 61 4 3 81 5 172 4 l166
-3 0 -55z m-1982 -24 c5 -33 4 -53 -3 -60 -7 -7 -74 -12 -176 -15 l-165 -3 3
58 3 59 145 5 c80 3 154 5 165 5 16 0 21 -10 28 -49z m1772 -151 c191 -45 185
-43 185 -71 0 -13 -6 -39 -14 -58 l-14 -33 -162 40 -162 40 7 35 c10 55 23 82
37 77 7 -2 63 -16 123 -30z m-1738 -59 c8 -26 13 -50 11 -51 -6 -6 -320 -97
-323 -93 -10 13 -34 103 -28 109 13 11 286 88 307 86 14 -1 23 -16 33 -51z
m1235 -97 c7 -5 25 -9 40 -9 40 0 43 -16 9 -52 -27 -29 -29 -37 -24 -75 7 -49
1 -51 -52 -26 -33 16 -37 16 -70 0 -50 -24 -53 -22 -47 29 4 41 2 48 -28 79
-36 37 -35 38 33 50 20 3 37 9 37 13 0 4 10 23 21 41 l21 35 23 -38 c13 -22
29 -43 37 -47z m-774 11 c-10 -31 -464 -869 -471 -870 -4 0 -9 6 -12 13 -2 6
-20 71 -41 142 -21 72 -39 132 -41 134 -1 2 -75 -66 -163 -150 -89 -85 -167
-155 -174 -157 -7 -2 -30 18 -51 44 -33 40 -36 48 -23 58 46 34 326 290 323
296 -2 3 -65 30 -139 60 -75 30 -135 58 -133 63 2 7 901 374 920 376 5 1 7 -3
5 -9z m1224 -91 c73 -39 137 -75 142 -80 12 -11 -28 -99 -45 -99 -19 0 -289
145 -289 155 0 14 44 95 52 95 3 0 66 -32 140 -71z m-133 -196 c58 -53 114
-104 123 -112 16 -15 14 -19 -21 -60 l-38 -45 -127 114 c-137 123 -132 112
-77 173 14 15 27 27 29 27 3 0 52 -44 111 -97z m-155 -187 c47 -71 86 -132 86
-136 0 -9 -75 -60 -88 -60 -9 0 -187 259 -187 272 0 13 89 68 96 60 3 -4 45
-65 93 -136z m-910 24 c25 -10 46 -22 46 -26 0 -21 -116 -297 -127 -301 -6 -3
-32 5 -58 16 l-46 20 14 33 c7 18 35 88 62 156 27 67 52 122 56 122 4 0 28 -9
53 -20z m696 -137 c29 -82 55 -153 57 -159 5 -15 -96 -50 -106 -38 -10 12
-111 285 -111 300 0 12 63 41 91 43 12 1 30 -38 69 -146z m-457 77 c10 -9 -29
-321 -41 -330 -4 -4 -31 -2 -60 3 -51 8 -53 10 -48 35 3 15 12 86 21 157 9 72
18 136 20 142 5 14 92 7 108 -7z m208 18 c7 -22 35 -335 31 -340 -8 -8 -99
-14 -106 -7 -7 7 -38 295 -34 316 2 13 15 20 48 24 25 3 48 7 53 7 4 1 7 1 8
0z"/>
<path d="M8547 3113 c-4 -3 -7 -442 -7 -975 l0 -968 160 0 160 0 0 975 0 975
-153 0 c-85 0 -157 -3 -160 -7z"/>
<path d="M14860 2145 l0 -976 158 3 157 3 5 450 5 450 33 68 c58 118 159 173
301 165 116 -7 190 -55 240 -156 34 -67 40 -160 41 -585 l0 -398 158 3 157 3
0 500 c0 393 -3 512 -14 555 -45 181 -151 301 -309 350 -202 63 -403 15 -544
-131 l-68 -70 -2 368 -3 368 -157 3 -158 3 0 -976z"/>
<path d="M5751 3049 c-90 -15 -230 -67 -315 -117 -92 -54 -229 -179 -291 -267
-116 -163 -175 -354 -175 -566 0 -548 419 -959 978 -959 431 0 809 278 926
683 103 356 9 728 -245 973 -144 138 -288 212 -481 249 -88 16 -307 19 -397 4z
m339 -305 c395 -93 596 -562 408 -954 -50 -105 -160 -220 -253 -267 -206 -104
-439 -99 -622 14 -78 48 -108 75 -165 145 -96 117 -141 255 -141 428 0 313
188 566 472 635 76 18 222 18 301 -1z"/>
<path d="M9122 3039 c-157 -78 -118 -315 56 -336 94 -11 167 36 198 129 14 44
14 52 0 96 -38 112 -151 162 -254 111z"/>
<path d="M13800 3045 c-298 -60 -546 -263 -672 -550 -57 -129 -73 -215 -73
-395 0 -198 18 -280 95 -437 161 -327 476 -522 845 -523 282 0 492 83 705 278
l55 51 -107 107 -106 107 -83 -66 c-92 -74 -194 -128 -285 -151 -78 -20 -241
-21 -314 -1 -359 95 -556 501 -426 876 72 207 230 353 436 405 89 22 251 15
340 -15 78 -27 181 -86 256 -147 30 -25 59 -44 65 -42 5 2 54 55 109 118 l101
115 -48 43 c-125 111 -281 191 -436 223 -110 22 -355 25 -457 4z"/>
<path d="M16360 3038 c-57 -30 -104 -112 -97 -169 12 -94 76 -158 167 -167 95
-9 181 58 196 155 9 59 -30 141 -81 173 -56 35 -128 38 -185 8z"/>
<path d="M7745 2600 c-119 -22 -204 -69 -289 -161 -30 -32 -57 -59 -60 -59 -4
0 -6 45 -6 100 l0 101 -157 -3 -158 -3 -3 -702 -2 -703 160 0 160 0 0 393 c0
215 5 423 10 461 26 176 126 274 291 284 104 6 167 -15 229 -77 85 -85 84 -81
88 -603 l3 -458 159 0 160 0 0 503 c0 544 -3 573 -56 680 -79 156 -212 240
-402 251 -42 3 -99 1 -127 -4z"/>
<path d="M10315 2600 c-119 -21 -204 -68 -289 -161 -30 -32 -57 -59 -60 -59
-4 0 -6 45 -6 100 l0 101 -157 -3 -158 -3 -3 -702 -2 -703 160 0 160 0 0 398
c0 405 6 493 39 567 45 102 139 165 257 173 103 7 173 -16 233 -76 86 -86 85
-81 89 -604 l3 -458 159 0 160 0 0 498 c0 540 -4 580 -55 683 -80 158 -210
240 -401 253 -43 2 -101 1 -129 -4z"/>
<path d="M11575 2596 c-262 -50 -466 -248 -536 -521 -28 -111 -28 -299 0 -408
50 -192 185 -364 351 -445 290 -143 627 -98 848 113 l74 69 -40 36 c-22 19
-65 57 -96 83 l-55 48 -73 -55 c-109 -84 -158 -100 -303 -101 -110 0 -125 2
-177 27 -110 51 -202 167 -223 281 l-7 37 517 0 518 0 -6 133 c-7 195 -54 341
-152 472 -80 107 -199 187 -329 220 -87 22 -228 27 -311 11z m266 -288 c63
-30 131 -95 160 -155 20 -42 49 -135 49 -160 0 -10 -78 -13 -356 -13 l-357 0
6 39 c12 93 93 219 171 268 92 59 227 67 327 21z"/>
<path d="M17533 2600 c-116 -21 -223 -84 -300 -175 l-38 -46 -5 98 -5 98 -160
0 -160 0 0 -700 0 -700 160 0 160 0 5 450 5 450 29 63 c51 109 133 163 261
170 140 7 233 -47 289 -167 20 -44 21 -63 26 -506 l5 -460 160 0 160 0 0 510
-1 510 -26 77 c-71 211 -213 319 -437 332 -42 3 -99 1 -128 -4z"/>
<path d="M18760 2593 c-141 -13 -263 -42 -367 -88 l-52 -24 41 -118 c22 -65
43 -122 47 -126 4 -4 30 2 57 13 119 52 314 79 429 60 124 -20 220 -94 244
-188 14 -51 21 -131 13 -136 -4 -2 -40 5 -81 15 -225 57 -486 42 -645 -38 -60
-30 -140 -104 -171 -158 -58 -99 -69 -271 -25 -388 30 -78 110 -164 197 -210
73 -38 191 -67 273 -67 70 0 191 26 254 55 60 27 176 110 176 125 0 5 4 10 10
10 5 0 10 -35 12 -77 l3 -78 158 -3 158 -3 -4 493 c-3 435 -6 500 -21 553 -66
224 -220 346 -473 375 -84 9 -158 11 -233 3z m336 -796 l79 -22 3 -68 c7 -160
-80 -266 -253 -312 -109 -28 -220 -15 -299 35 -58 37 -86 90 -86 165 0 115 70
189 210 222 78 18 247 9 346 -20z"/>
<path d="M9107 2573 c-4 -3 -7 -321 -7 -705 l0 -698 160 0 160 0 0 705 0 705
-153 0 c-85 0 -157 -3 -160 -7z"/>
<path d="M16325 2568 c-3 -7 -4 -323 -3 -703 l3 -690 160 0 160 0 0 700 0 700
-158 3 c-120 2 -159 0 -162 -10z"/>
<path d="M7292 589 l3 -332 45 -1 45 -1 3 333 2 332 -50 0 -50 0 2 -331z"/>
<path d="M14404 911 c-2 -2 -4 -58 -4 -123 0 -65 -3 -118 -6 -118 -3 0 -19 11
-36 25 -76 64 -203 54 -276 -23 -42 -46 -62 -100 -62 -178 0 -96 34 -165 105
-212 47 -32 55 -34 117 -30 57 3 72 8 107 36 48 39 55 40 49 7 -3 -14 0 -28 6
-33 13 -9 76 -9 91 0 6 4 8 119 5 328 l-5 323 -43 1 c-24 0 -46 -1 -48 -3z
m-88 -280 c31 -14 47 -30 63 -63 26 -54 26 -90 1 -145 -64 -143 -256 -88 -254
73 1 66 28 111 79 135 50 23 60 23 111 0z"/>
<path d="M5640 855 l0 -56 53 3 52 3 0 50 0 50 -52 3 -53 3 0 -56z"/>
<path d="M5049 883 c-5 -35 -5 -84 0 -90 3 -4 47 -8 96 -8 l90 0 5 -265 5
-264 50 0 50 0 5 264 5 265 85 2 c47 1 91 2 98 2 9 1 12 15 10 49 l-3 47 -247
3 c-137 1 -248 -1 -249 -5z"/>
<path d="M8525 878 c-3 -7 -4 -150 -3 -316 l3 -303 230 0 230 0 0 48 0 48
-178 3 -178 2 3 83 3 82 150 1 150 1 3 46 3 46 -153 3 -153 3 0 80 0 80 173 3
173 2 -3 48 -3 47 -223 3 c-173 2 -224 0 -227 -10z"/>
<path d="M15025 618 c-65 -150 -126 -290 -136 -312 -10 -21 -17 -42 -15 -45 3
-4 26 -6 53 -6 52 1 50 -2 96 100 l22 50 149 0 149 0 26 -65 c14 -36 29 -70
33 -75 10 -16 114 -11 110 5 -4 16 -190 447 -237 548 l-34 72 -49 0 -49 0
-118 -272z m229 -3 l44 -100 -100 -3 c-56 -1 -103 0 -106 3 -3 2 9 35 25 72
17 38 41 91 53 118 19 44 23 48 31 30 5 -11 29 -65 53 -120z"/>
<path d="M6075 720 c-22 -11 -43 -27 -48 -35 -13 -25 -27 -17 -27 16 l0 30
-52 -3 -53 -3 -3 -232 c-1 -128 1 -233 5 -234 5 0 28 -1 53 -2 l45 -2 5 163 5
164 33 29 c49 44 115 38 144 -14 8 -14 15 -79 18 -182 l5 -160 40 0 c68 -1 65
-8 65 167 l0 160 29 29 c41 40 91 40 132 0 l29 -29 0 -161 c0 -100 4 -161 10
-162 6 0 26 -1 45 -1 19 0 40 1 46 1 7 1 10 58 7 184 -3 160 -5 186 -23 216
-28 48 -65 72 -118 78 -56 7 -104 -9 -148 -48 l-34 -30 -19 27 c-39 54 -123
69 -191 34z"/>
<path d="M6860 719 c-85 -38 -129 -102 -137 -201 -7 -76 11 -137 55 -189 49
-57 100 -79 187 -79 62 0 78 4 125 33 30 17 56 39 57 47 1 8 -11 25 -27 38
l-30 23 -26 -20 c-66 -52 -150 -46 -203 14 -55 63 -52 64 142 67 l172 3 -2 58
c-6 171 -163 274 -313 206z m154 -90 c30 -24 60 -75 51 -89 -9 -14 -235 -13
-235 0 0 21 30 69 56 89 35 28 93 28 128 0z"/>
<path d="M9236 726 c-121 -45 -186 -170 -156 -296 16 -65 83 -142 145 -165 67
-26 170 -18 224 18 55 37 60 52 26 87 l-27 28 -35 -24 c-100 -68 -217 -17
-230 100 -7 57 26 130 68 151 45 24 110 19 155 -11 l38 -26 28 33 c15 19 26
39 24 44 -1 6 -23 23 -49 39 -56 35 -150 44 -211 22z"/>
<path d="M9750 731 c-181 -55 -241 -279 -109 -410 49 -50 103 -71 179 -71 145
0 250 103 250 245 0 77 -24 129 -84 182 -63 56 -158 77 -236 54z m163 -124
c81 -76 64 -208 -32 -252 -99 -44 -201 26 -201 138 0 94 50 146 142 147 50 0
60 -4 91 -33z"/>
<path d="M10364 721 c-23 -10 -44 -26 -47 -35 -11 -27 -27 -18 -27 15 l0 30
-52 -3 -53 -3 -3 -229 c-1 -147 1 -232 8 -236 5 -3 29 -6 52 -5 l43 1 5 163 5
163 33 29 c35 31 94 39 122 16 42 -34 45 -47 50 -211 l5 -160 43 -1 c24 -1 46
3 48 7 3 5 6 87 6 183 0 163 -2 177 -23 215 -41 73 -132 99 -215 61z"/>
<path d="M10871 723 c-132 -47 -197 -215 -132 -341 44 -84 124 -132 223 -132
101 0 175 43 222 131 55 100 33 214 -55 293 -72 65 -164 82 -258 49z m188
-122 c53 -53 63 -110 31 -176 -68 -141 -270 -89 -270 70 0 88 58 145 148 145
47 0 56 -4 91 -39z"/>
<path d="M11505 720 c-22 -11 -43 -27 -48 -35 -13 -25 -27 -17 -27 16 l0 30
-52 -3 -53 -3 -3 -224 c-1 -128 2 -228 7 -235 5 -6 29 -11 53 -11 l43 0 5 164
5 163 33 29 c49 44 115 38 144 -14 8 -14 15 -79 18 -182 l5 -160 41 1 c23 1
46 4 53 8 7 5 11 56 11 162 l0 156 29 29 c42 42 99 41 135 -2 26 -30 26 -33
26 -190 0 -87 3 -159 8 -160 4 0 27 -1 52 -2 l45 -2 0 192 c0 178 -1 194 -21
219 -64 87 -167 98 -258 29 l-45 -34 -16 25 c-34 53 -122 68 -190 34z"/>
<path d="M13100 734 c-53 -9 -110 -27 -118 -38 -6 -6 -4 -25 5 -45 12 -28 17
-32 36 -26 12 4 54 9 94 12 70 5 73 4 103 -25 18 -18 30 -41 30 -57 0 -25 -2
-26 -37 -18 -67 14 -155 9 -197 -12 -58 -29 -81 -66 -81 -130 0 -62 22 -100
76 -128 48 -26 153 -20 196 11 39 27 41 27 45 0 3 -19 9 -23 46 -23 24 0 48 6
54 12 15 19 6 332 -11 363 -19 36 -52 70 -81 85 -28 14 -121 25 -160 19z m109
-260 c39 -8 51 -29 39 -72 -12 -43 -59 -72 -118 -72 -75 0 -108 42 -84 105 14
35 91 53 163 39z"/>
<path d="M13680 729 c-14 -5 -37 -22 -52 -36 -16 -15 -28 -23 -29 -17 -1 5 -2
18 -3 29 -1 17 -9 20 -54 23 l-52 3 2 -238 3 -238 41 1 c23 1 46 4 53 8 7 5
11 54 11 152 0 153 9 192 49 214 35 18 88 12 118 -14 l28 -24 5 -168 5 -168
50 0 50 0 3 174 c2 165 1 178 -20 219 -13 25 -35 54 -50 65 -31 22 -120 31
-158 15z"/>
<path d="M15695 725 c-95 -34 -126 -153 -57 -218 15 -13 60 -37 100 -51 41
-14 82 -31 93 -36 28 -15 24 -56 -7 -77 -23 -15 -33 -15 -83 -5 -31 7 -68 21
-83 32 -15 11 -29 20 -32 20 -2 0 -15 -17 -27 -37 l-23 -36 24 -16 c73 -49
209 -68 269 -36 53 27 81 71 81 127 0 46 -4 55 -38 87 -24 23 -64 45 -108 59
-96 33 -126 66 -92 100 19 19 99 14 143 -8 22 -11 40 -20 41 -20 1 0 12 16 25
36 22 36 22 37 3 51 -27 19 -111 43 -153 43 -20 -1 -54 -7 -76 -15z"/>
<path d="M16144 730 c-75 -23 -119 -108 -93 -177 18 -46 59 -75 147 -104 105
-34 124 -60 75 -99 -35 -28 -95 -22 -161 15 -25 14 -46 24 -47 23 -1 -2 -12
-18 -25 -37 -26 -38 -26 -37 55 -77 38 -18 67 -24 118 -24 116 0 177 49 177
144 0 67 -38 105 -137 141 -86 31 -113 49 -113 76 0 41 86 52 158 19 l43 -19
19 32 c11 18 20 36 20 40 0 4 -21 17 -46 29 -53 23 -145 32 -190 18z"/>
<path d="M17264 726 c-17 -7 -45 -31 -62 -52 l-32 -39 0 48 0 48 -52 -3 -53
-3 -3 -232 c-1 -128 1 -233 5 -234 5 0 28 -1 53 -2 l45 -2 5 130 c8 173 33
219 128 234 l37 6 0 55 c0 48 -3 55 -20 57 -11 2 -34 -4 -51 -11z"/>
<path d="M17525 730 c-59 -9 -105 -26 -105 -38 0 -5 5 -23 11 -41 11 -33 27
-38 60 -20 31 16 134 13 162 -6 29 -18 54 -72 41 -84 -5 -5 -37 -4 -71 2 -123
21 -219 -23 -243 -113 -10 -36 -9 -50 5 -86 24 -64 64 -88 150 -92 62 -3 74
-1 108 22 46 32 55 32 59 4 3 -20 9 -23 48 -23 l45 0 3 158 c3 165 -5 218 -38
259 -39 50 -134 73 -235 58z m138 -261 c32 -9 37 -14 37 -40 0 -22 -10 -41
-34 -65 -30 -30 -40 -34 -87 -34 -61 0 -99 26 -99 70 0 26 30 62 60 73 25 9
83 7 123 -4z"/>
<path d="M18133 733 c-13 -2 -36 -18 -52 -34 -37 -36 -41 -36 -41 2 l0 30 -52
-3 -53 -3 -3 -232 c-1 -128 1 -233 5 -234 5 0 28 -1 53 -2 l45 -2 5 163 5 164
33 29 c51 46 122 35 154 -24 7 -15 11 -71 9 -169 -2 -111 1 -148 11 -154 18
-11 88 -12 95 -1 3 5 5 87 4 184 -1 161 -2 178 -23 214 -35 62 -108 89 -195
72z"/>
<path d="M18640 731 c-182 -60 -240 -279 -107 -409 54 -53 101 -72 179 -72 52
0 72 6 116 31 67 38 73 53 36 90 l-29 29 -37 -26 c-97 -69 -214 -16 -226 104
-9 94 48 162 136 162 42 0 102 -25 102 -42 0 -4 6 -8 13 -8 17 0 70 68 62 80
-3 5 -26 22 -51 36 -48 28 -146 41 -194 25z"/>
<path d="M19130 731 c-42 -14 -84 -38 -107 -63 -56 -60 -78 -171 -51 -259 15
-52 73 -117 122 -140 83 -37 202 -20 276 40 l25 20 -31 32 -32 31 -30 -22
c-41 -30 -108 -42 -147 -25 -37 15 -87 72 -83 93 3 12 28 14 170 13 192 -2
188 -5 168 94 -15 70 -64 143 -114 169 -43 21 -126 30 -166 17z m128 -106 c30
-25 56 -78 45 -89 -4 -3 -57 -6 -120 -6 -108 0 -113 1 -113 21 0 12 17 39 39
60 49 49 102 54 149 14z"/>
<path d="M5640 496 c0 -150 4 -236 10 -237 6 0 26 -1 45 -1 19 0 40 1 45 1 7
1 9 81 8 234 l-3 232 -52 3 -53 3 0 -235z"/>
<path d="M7500 721 c0 -5 20 -56 44 -113 24 -56 67 -160 96 -231 l53 -128 -23
-24 c-25 -26 -59 -32 -90 -15 -16 9 -22 5 -35 -19 -23 -45 -19 -58 21 -71 84
-28 163 2 201 75 29 55 210 524 205 530 -10 10 -101 5 -107 -6 -4 -5 -30 -80
-59 -165 -29 -85 -57 -155 -61 -155 -5 0 -37 73 -71 163 l-62 163 -56 3 c-31
2 -56 -1 -56 -7z"/>
<path d="M12120 725 c0 -3 40 -101 89 -218 113 -272 108 -254 80 -283 -24 -26
-49 -30 -80 -14 -16 9 -22 5 -39 -22 -11 -18 -20 -38 -20 -44 0 -18 75 -37
126 -31 83 9 100 36 215 332 55 143 101 265 102 270 1 6 -22 10 -53 10 l-54 0
-56 -163 c-31 -90 -60 -163 -64 -163 -5 0 -36 73 -70 163 l-61 163 -58 3 c-31
2 -57 1 -57 -3z"/>
<path d="M16502 541 c3 -174 5 -192 24 -218 36 -48 82 -73 136 -73 49 0 128
31 128 50 0 23 29 8 32 -17 3 -24 7 -27 46 -28 23 -1 47 2 52 5 7 4 9 89 8
236 l-3 229 -52 3 -53 3 0 -146 c0 -161 -10 -203 -56 -224 -46 -20 -93 -14
-125 18 l-29 29 0 161 0 161 -56 0 -56 0 4 -189z"/>
<path d="M7990 321 c0 -50 3 -59 20 -64 36 -9 19 -52 -35 -83 -24 -14 -13 -44
16 -44 30 0 84 35 97 64 9 19 16 119 13 174 -1 8 -19 12 -56 12 l-55 0 0 -59z"/>
</g>
</svg>
